<svg xmlns="http://www.w3.org/2000/svg" width="24" height="24" viewBox="0 0 512 512">
  <defs>
    <linearGradient id="gradient" x1="0" y1="0" x2="0" y2="1">
      <stop offset="0%" stop-color="#4a6fff"/>
      <stop offset="100%" stop-color="#00aaff"/>
    </linearGradient>
  </defs>
  <path fill="url(#gradient)" d="M256 32c27 0 50 17 62 42 14-4 28-6 42-4 34 4 62 30 72 63 5 15 5 30 1 44 23 14 40 38 44 66 4 34-12 67-40 86 4 14 5 29 1 44-9 33-38 59-72 63-14 2-28 0-42-4-12 25-35 42-62 42s-50-17-62-42c-14 4-28 6-42 4-34-4-62-30-72-63-4-15-3-30 1-44-28-19-44-52-40-86 4-28 21-52 44-66-4-14-4-29 1-44 10-33 38-59 72-63 14-2 28 0 42 4 12-25 35-42 62-42z"/>
  <polyline points="170,260 230,320 340,210" stroke="white" fill="none" stroke-width="40" stroke-linecap="round" stroke-linejoin="round"/>
</svg>
